<?xml version="1.0" encoding="UTF-8" ?>
<!DOCTYPE svg PUBLIC "-//W3C//DTD SVG 1.1//EN" "http://www.w3.org/Graphics/SVG/1.1/DTD/svg11.dtd">
<svg width="267pt" height="235pt" viewBox="0 0 267 235" version="1.1" xmlns="http://www.w3.org/2000/svg">
<path fill="#ffffff" stroke="#ffffff" stroke-width="0.09375" d=" M 0.0 0.0 L 267.0 0.0 L 267.0 235.0 L 229.3 235.0 C 232.5 234.4 235.8 234.0 238.8 232.5 C 233.6 231.2 228.3 230.6 223.3 228.8 C 228.6 225.8 232.4 221.0 236.6 216.6 C 242.3 209.6 246.8 201.5 249.0 192.7 C 252.3 184.0 252.4 174.3 251.5 165.1 C 251.3 160.0 249.0 155.4 247.2 150.7 C 248.6 165.6 246.1 181.6 236.8 193.8 C 231.7 198.9 224.4 202.5 217.0 201.5 C 210.5 200.4 204.6 196.6 200.2 191.8 C 191.4 184.3 185.2 173.8 174.9 168.3 C 169.8 166.3 164.5 164.3 159.0 164.4 C 151.0 164.1 143.6 167.4 136.4 170.4 C 128.4 175.0 120.7 180.3 112.4 184.5 C 106.9 187.5 100.4 191.8 94.0 189.1 C 91.7 184.9 88.9 180.9 85.7 177.4 C 85.7 177.9 85.8 178.8 85.8 179.2 C 83.7 170.5 86.8 162.0 88.5 153.6 C 91.7 142.1 95.5 130.3 93.7 118.3 C 92.9 114.7 92.9 110.9 92.9 107.3 C 95.2 109.2 96.7 111.8 97.3 114.7 C 97.4 116.2 98.7 116.8 99.8 117.6 C 100.1 112.3 100.2 107.0 99.2 101.7 C 98.9 99.6 98.8 97.5 99.2 95.4 C 101.4 91.7 105.6 90.0 107.9 86.4 C 107.7 85.0 107.1 83.4 107.8 82.0 C 109.5 77.5 111.0 72.8 111.3 68.0 C 111.7 64.5 110.9 60.8 112.4 57.4 C 113.4 55.2 114.7 53.1 115.8 51.0 C 117.0 51.4 118.1 51.8 119.3 52.1 C 119.6 51.3 120.2 49.5 120.5 48.7 C 116.5 47.2 112.9 44.4 108.5 44.5 C 110.2 47.8 112.2 51.4 110.0 55.0 C 107.5 50.9 105.9 46.5 103.7 42.3 C 108.2 37.5 110.3 30.4 107.9 24.0 C 105.8 20.4 103.3 16.5 99.3 14.8 C 91.5 11.3 81.8 9.8 74.1 14.5 C 70.0 12.3 65.2 10.1 60.4 11.6 C 53.1 14.1 46.2 18.2 41.0 24.0 C 37.0 29.7 35.5 36.9 36.2 43.8 C 33.6 48.2 31.1 52.6 28.5 57.0 C 28.6 54.1 27.6 50.5 30.3 48.5 C 31.6 47.5 31.9 45.8 32.4 44.4 C 27.9 45.9 22.8 47.3 19.4 50.8 C 19.5 53.9 22.7 51.9 24.6 52.6 C 26.1 56.2 27.4 60.0 27.0 64.0 C 26.4 72.6 26.6 82.0 31.9 89.2 C 31.6 96.5 28.8 103.6 28.5 110.9 C 32.6 108.1 34.6 103.4 38.1 100.0 C 34.9 106.5 31.6 113.1 30.5 120.3 C 30.3 123.6 27.2 125.3 25.1 127.4 C 25.1 132.9 24.6 139.3 28.5 143.8 C 28.8 141.3 28.8 138.8 29.2 136.3 C 30.2 135.1 31.5 134.2 32.8 133.3 C 33.2 137.4 32.6 141.8 34.7 145.6 C 38.3 142.1 38.4 136.7 38.7 131.9 C 39.1 127.7 35.3 124.4 36.0 120.1 C 37.1 113.2 42.2 108.0 47.0 103.3 C 50.9 104.3 54.9 105.5 58.9 106.3 C 61.9 112.6 61.3 119.8 59.7 126.4 C 59.3 133.0 55.6 138.4 53.5 144.5 C 49.8 152.1 47.6 160.3 45.4 168.5 C 43.5 177.7 43.8 187.4 45.8 196.5 C 47.5 201.1 48.7 206.2 52.2 209.8 C 58.0 216.7 64.0 223.9 72.2 228.2 C 68.3 229.1 63.8 229.2 60.7 232.0 C 68.7 233.4 76.7 234.2 84.8 235.0 L 0.0 235.0 L 0.0 0.0 Z" />
<path fill="#000000" stroke="#000000" stroke-width="0.09375" d=" M 50.2 7.2 C 54.4 4.2 58.9 0.4 64.5 1.0 C 62.4 2.6 60.0 3.6 57.8 4.9 C 54.6 7.1 51.6 9.9 47.9 11.3 C 48.5 9.9 48.8 8.1 50.2 7.2 Z" />
<path fill="#000000" stroke="#000000" stroke-width="0.09375" d=" M 80.9 1.6 C 83.9 -0.1 86.7 2.3 88.7 4.3 C 90.8 6.4 94.0 8.1 94.3 11.4 C 89.1 9.1 86.1 3.8 80.9 1.6 Z" />
<path fill="#000000" stroke="#000000" stroke-width="0.09375" d=" M 60.4 11.6 C 65.2 10.1 70.0 12.3 74.1 14.5 C 81.8 9.8 91.5 11.3 99.3 14.8 C 103.3 16.5 105.8 20.4 107.9 24.0 C 110.3 30.4 108.2 37.5 103.7 42.3 C 105.9 46.5 107.5 50.9 110.0 55.0 C 112.2 51.4 110.2 47.8 108.5 44.5 C 112.9 44.4 116.5 47.2 120.5 48.7 C 120.2 49.5 119.6 51.3 119.3 52.1 C 118.1 51.8 117.0 51.4 115.8 51.0 C 114.7 53.1 113.4 55.2 112.4 57.4 C 110.9 60.8 111.7 64.5 111.3 68.0 C 111.0 72.8 109.5 77.5 107.8 82.0 C 107.1 83.4 107.7 85.0 107.9 86.4 C 105.6 90.0 101.4 91.7 99.2 95.4 C 98.8 97.5 98.9 99.6 99.2 101.7 C 100.2 107.0 100.1 112.3 99.8 117.6 C 98.7 116.8 97.4 116.2 97.3 114.7 C 96.7 111.8 95.2 109.2 92.9 107.3 C 92.9 110.9 92.9 114.7 93.7 118.3 C 95.5 130.3 91.7 142.1 88.5 153.6 C 86.8 162.0 83.7 170.5 85.8 179.2 C 87.1 183.4 90.4 186.7 94.0 189.1 C 100.4 191.8 106.9 187.5 112.4 184.5 C 120.7 180.3 128.4 175.0 136.4 170.4 C 143.6 167.4 151.0 164.1 159.0 164.4 C 164.5 164.3 169.8 166.3 174.9 168.3 C 185.2 173.8 191.4 184.3 200.2 191.8 C 204.6 196.6 210.5 200.4 217.0 201.5 C 224.4 202.5 231.7 198.9 236.8 193.8 C 246.1 181.6 248.6 165.6 247.2 150.7 C 249.0 155.4 251.3 160.0 251.5 165.1 C 252.4 174.3 252.3 184.0 249.0 192.7 C 246.8 201.5 242.3 209.6 236.6 216.6 C 232.4 221.0 228.6 225.8 223.3 228.8 C 228.3 230.6 233.6 231.2 238.8 232.5 C 235.8 234.0 232.5 234.4 229.3 235.0 L 206.8 235.0 C 199.8 233.8 192.7 233.1 185.7 232.3 C 189.8 231.3 194.0 230.6 197.9 229.0 C 189.4 222.6 181.5 215.4 172.7 209.3 C 168.3 207.2 163.9 204.7 159.0 204.0 C 152.1 204.0 146.2 208.1 140.4 211.4 C 134.3 216.0 128.1 220.5 121.8 224.7 C 118.1 227.0 113.8 227.7 110.2 230.0 C 115.0 231.1 120.2 230.7 124.6 233.1 C 120.9 234.3 117.0 234.3 113.2 235.0 L 84.8 235.0 C 76.7 234.2 68.7 233.4 60.7 232.0 C 63.8 229.2 68.3 229.1 72.2 228.2 C 64.0 223.9 58.0 216.7 52.2 209.8 C 48.7 206.2 47.5 201.1 45.8 196.5 C 43.8 187.4 43.5 177.7 45.4 168.5 C 47.6 160.3 49.8 152.1 53.5 144.5 C 55.6 138.4 59.3 133.0 59.7 126.4 C 61.3 119.8 61.9 112.6 58.9 106.3 C 54.9 105.5 50.9 104.3 47.0 103.3 C 42.2 108.0 37.1 113.2 36.0 120.1 C 35.3 124.4 39.1 127.7 38.7 131.9 C 38.4 136.7 38.3 142.1 34.7 145.6 C 32.6 141.8 33.2 137.4 32.8 133.3 C 31.5 134.2 30.2 135.1 29.2 136.3 C 28.8 138.8 28.8 141.3 28.5 143.8 C 24.6 139.3 25.1 132.9 25.1 127.4 C 27.2 125.3 30.3 123.6 30.5 120.3 C 31.6 113.1 34.9 106.5 38.1 100.0 C 34.6 103.4 32.6 108.1 28.5 110.9 C 28.8 103.6 31.6 96.5 31.9 89.2 C 26.6 82.0 26.4 72.6 27.0 64.0 C 27.4 60.0 26.1 56.2 24.6 52.6 C 22.7 51.9 19.5 53.9 19.4 50.8 C 22.8 47.3 27.9 45.9 32.4 44.4 C 31.9 45.8 31.6 47.5 30.3 48.5 C 27.6 50.5 28.6 54.1 28.5 57.0 C 31.1 52.6 33.6 48.2 36.2 43.8 C 35.5 36.9 37.0 29.7 41.0 24.0 C 46.2 18.2 53.1 14.1 60.4 11.6 Z" />
<path fill="#ffffff" stroke="#ffffff" stroke-width="0.09375" d=" M 47.9 22.0 C 52.7 18.4 57.8 14.4 64.1 14.2 C 66.4 14.7 68.6 15.6 70.8 16.3 C 71.7 18.6 72.6 21.0 72.7 23.5 C 69.0 21.9 65.1 21.7 61.2 22.1 C 59.8 24.5 58.3 26.8 56.9 29.2 C 56.7 33.9 59.5 38.0 63.1 40.8 C 56.9 45.7 48.2 46.9 40.9 44.3 C 37.0 36.2 42.5 27.8 47.9 22.0 Z" />
<path fill="#ffffff" stroke="#ffffff" stroke-width="0.09375" d=" M 75.5 17.7 C 82.4 13.6 91.4 13.7 98.4 17.6 C 105.1 21.4 108.0 31.1 103.6 37.6 C 98.0 44.2 87.8 45.7 80.1 42.3 C 84.0 39.8 89.2 36.4 88.0 31.0 C 87.9 27.6 84.8 25.3 81.8 24.3 C 79.7 23.5 77.6 24.9 75.6 25.2 C 75.5 22.7 75.5 20.2 75.5 17.7 Z" />
<path fill="#0098e0" stroke="#0098e0" stroke-width="0.09375" d=" M 60.9 28.1 C 62.1 22.7 72.2 23.6 72.3 29.0 C 70.0 28.4 67.8 26.7 65.3 27.2 C 63.4 28.8 62.0 32.0 63.9 34.1 C 64.8 35.4 65.7 36.8 66.4 38.3 C 63.7 37.4 60.9 35.8 60.1 32.9 C 60.1 31.3 60.4 29.6 60.9 28.1 Z" />
<path fill="#0098e0" stroke="#0098e0" stroke-width="0.09375" d=" M 79.2 26.1 C 81.4 26.0 84.4 26.6 85.1 29.0 C 87.9 34.3 81.7 40.9 76.1 39.4 C 74.0 39.4 71.8 37.2 72.8 35.2 C 74.5 31.9 75.2 27.2 79.2 26.1 Z" />
<path fill="#000000" stroke="#000000" stroke-width="0.09375" d=" M 76.3 30.3 C 78.5 28.4 83.8 29.3 83.0 33.0 C 83.1 36.8 78.3 35.9 75.8 35.9 C 75.7 34.1 74.7 31.8 76.3 30.3 Z" />
<path fill="#6dab24" stroke="#6dab24" stroke-width="0.09375" d=" M 58.6 47.4 C 62.9 45.6 66.6 42.5 70.3 39.7 C 74.1 42.8 77.9 46.4 83.0 47.2 C 89.5 48.0 96.3 47.5 102.3 44.7 C 107.9 54.9 110.5 67.5 106.8 78.8 C 102.7 87.5 96.4 95.2 88.4 100.5 C 84.9 102.8 80.8 103.3 76.8 103.9 C 65.7 105.6 53.9 103.7 44.3 97.8 C 40.1 95.1 35.6 92.3 33.2 87.7 C 29.9 81.4 28.6 74.3 28.6 67.2 C 29.5 63.4 31.6 59.9 33.0 56.2 C 34.4 53.2 35.2 49.5 38.0 47.4 C 41.0 48.2 42.5 52.0 45.9 51.8 C 50.0 51.9 54.4 52.0 58.3 50.3 C 53.3 50.7 48.0 52.5 43.2 50.4 C 48.5 50.1 53.8 49.8 58.6 47.4 Z" />
<path fill="#000000" stroke="#000000" stroke-width="0.09375" d=" M 79.7 48.1 C 84.5 49.4 89.5 50.2 94.5 50.3 C 93.5 51.7 91.8 51.7 90.3 51.5 C 86.6 51.1 82.9 50.1 79.7 48.1 Z" />
<path fill="#000000" stroke="#000000" stroke-width="0.09375" d=" M 79.4 50.6 C 83.4 51.6 87.3 53.0 91.1 54.8 C 86.8 54.8 82.6 53.4 79.4 50.6 Z" />
<path fill="#014b27" stroke="#014b27" stroke-width="0.09375" d=" M 52.3 53.0 C 53.1 52.5 55.3 53.1 54.3 54.3 C 53.4 55.2 52.4 55.5 51.2 55.2 C 49.7 54.6 51.4 53.1 52.3 53.0 Z" />
<path fill="#000000" stroke="#000000" stroke-width="0.09375" d=" M 48.5 76.3 C 49.1 74.2 50.6 72.6 51.8 70.8 C 50.6 74.6 49.7 78.6 50.1 82.6 C 49.5 80.6 48.4 78.5 48.5 76.3 Z" />
<path fill="#000000" stroke="#000000" stroke-width="0.09375" d=" M 56.2 73.3 C 57.5 73.9 58.8 74.5 60.2 75.1 C 60.0 76.9 60.3 79.4 58.2 80.3 C 56.7 81.6 54.9 80.2 53.3 79.9 C 53.3 78.4 53.4 76.9 53.4 75.4 C 54.4 74.7 55.3 74.0 56.2 73.3 Z" />
<path fill="#000000" stroke="#000000" stroke-width="0.09375" d=" M 68.9 79.8 C 70.2 78.0 71.3 75.1 74.0 75.2 C 76.2 74.8 77.5 77.0 79.1 78.1 C 78.1 79.7 77.2 81.4 75.6 82.6 C 73.1 82.7 71.0 81.0 68.9 79.8 Z" />
<path fill="#000000" stroke="#000000" stroke-width="0.09375" d=" M 76.0 84.5 C 78.0 83.1 79.3 80.9 80.9 79.0 C 80.4 81.0 81.1 83.8 79.2 85.1 C 76.2 86.3 72.7 85.7 70.7 83.2 C 72.5 83.6 74.2 84.2 76.0 84.5 Z" />
<path fill="#000000" stroke="#000000" stroke-width="0.09375" d=" M 51.4 83.3 C 54.7 82.9 58.0 82.9 61.3 83.3 C 58.2 84.9 54.5 85.0 51.4 83.3 Z" />
<path fill="#ffffff" stroke="#ffffff" stroke-width="0.09375" d=" M 33.7 93.6 C 34.8 94.6 37.1 95.1 37.0 96.9 C 35.8 99.4 33.9 101.5 32.4 103.8 C 32.9 100.4 33.3 97.0 33.7 93.6 Z" />
<path fill="#ffffff" stroke="#ffffff" stroke-width="0.09375" d=" M 92.5 101.0 C 93.2 99.8 94.2 98.8 95.4 97.9 C 97.0 101.1 97.2 104.8 97.0 108.3 C 95.6 105.8 93.6 103.6 92.5 101.0 Z" />
<path fill="#f6725e" stroke="#f6725e" stroke-width="0.09375" d=" M 41.2 100.2 C 42.7 101.2 44.2 102.1 45.7 103.0 C 39.7 108.2 33.4 115.2 34.6 123.7 C 35.7 128.4 35.6 133.3 35.6 138.1 C 34.6 134.9 33.8 131.4 31.0 129.2 C 29.9 130.8 28.9 132.5 27.8 134.2 C 28.3 130.9 28.5 127.3 30.8 124.8 C 33.4 122.0 32.3 117.9 33.5 114.5 C 35.3 109.4 38.1 104.7 41.2 100.2 Z" />
<path fill="#6dab24" stroke="#6dab24" stroke-width="0.09375" d=" M 66.4 107.4 C 73.7 107.7 81.3 108.0 88.2 104.9 C 89.2 108.3 90.2 111.7 91.0 115.1 C 85.7 116.0 80.0 118.2 77.2 123.2 C 74.9 128.1 75.1 134.8 79.8 138.3 C 80.7 139.1 81.6 139.8 82.7 140.3 C 84.4 141.1 86.2 141.6 88.0 142.2 C 87.4 144.6 86.8 146.9 86.2 149.2 C 83.7 148.8 80.9 148.0 78.5 149.4 C 73.9 152.0 70.6 156.8 70.0 162.0 C 69.4 166.1 72.3 169.4 74.6 172.4 C 76.3 174.7 79.6 174.0 81.8 175.3 C 83.0 177.6 83.7 180.2 83.8 182.8 C 81.6 185.5 77.6 187.3 77.0 191.1 C 76.8 196.2 79.2 201.6 83.7 204.2 C 88.0 207.3 93.7 207.8 98.6 206.5 C 103.4 203.7 103.2 197.6 103.9 192.8 C 106.4 190.8 109.5 190.1 112.4 189.0 C 113.1 190.5 113.6 192.1 114.6 193.5 C 118.7 196.1 123.9 196.7 128.6 195.5 C 132.3 194.6 134.5 191.4 136.9 188.9 C 141.1 184.5 139.5 177.5 136.9 172.7 C 140.6 171.5 144.3 170.6 148.1 170.0 C 148.4 173.5 148.3 177.4 150.8 180.2 C 154.5 184.4 160.7 184.5 165.8 183.7 C 170.3 182.1 173.0 177.6 173.7 173.1 C 177.2 174.6 180.8 176.2 183.8 178.8 C 183.0 179.9 182.3 181.0 181.6 182.3 C 181.1 183.4 180.7 184.6 180.3 185.8 C 176.9 193.7 184.9 202.7 193.0 202.1 C 196.5 202.4 199.3 199.8 201.9 197.9 C 204.2 199.4 206.4 200.9 208.7 202.3 C 208.2 204.7 207.0 207.3 208.2 209.7 C 211.7 219.0 227.0 219.0 231.2 210.2 C 233.2 207.5 232.3 204.1 231.5 201.1 C 235.0 198.1 238.8 195.2 241.2 191.2 C 244.3 186.9 246.1 181.8 248.0 176.9 C 247.1 185.1 243.7 192.8 240.4 200.4 C 236.5 207.8 232.2 215.3 225.3 220.3 C 220.9 224.4 215.0 226.9 209.0 226.5 C 203.9 226.8 200.0 223.0 195.4 221.4 C 193.4 219.9 191.5 218.3 189.7 216.5 C 184.3 209.8 177.1 204.7 169.5 200.6 C 165.9 198.6 161.9 196.8 157.6 197.5 C 154.3 197.7 150.9 198.2 147.8 199.5 C 147.7 199.6 147.5 199.6 147.4 199.7 C 146.9 199.9 146.0 200.4 145.6 200.7 C 137.4 203.8 131.0 210.0 123.9 214.9 C 117.3 219.3 110.1 223.5 102.0 224.3 C 93.2 225.0 84.1 224.0 76.1 220.0 C 70.5 217.9 66.3 213.6 61.5 210.2 C 59.4 207.6 57.4 204.9 55.5 202.1 C 56.4 200.7 56.1 200.2 54.6 200.6 C 54.2 199.5 53.8 198.4 53.4 197.3 C 52.2 190.2 50.6 183.0 50.1 175.7 C 50.2 174.4 50.4 173.0 50.6 171.7 C 50.3 172.5 50.9 175.6 52.1 173.9 C 52.7 172.5 51.8 171.2 50.9 170.2 C 51.2 168.8 51.5 167.4 51.8 166.1 C 54.7 161.6 55.3 156.2 57.2 151.3 C 59.1 145.5 62.6 139.9 62.4 133.6 C 62.5 133.2 62.6 132.2 62.7 131.7 C 64.3 134.1 65.3 130.3 63.0 130.1 C 62.9 129.7 62.7 129.0 62.6 128.6 C 62.5 124.4 64.3 120.3 63.9 116.1 C 63.5 113.1 63.1 110.0 63.0 106.8 C 63.4 107.2 64.4 108.0 64.8 108.3 C 65.2 115.4 64.4 122.5 64.0 129.5 C 67.2 122.6 66.4 114.8 66.4 107.4 Z" />
<path fill="#014b27" stroke="#014b27" stroke-width="0.09375" d=" M 78.8 125.7 C 80.9 121.3 84.7 117.2 89.8 116.8 C 90.2 117.9 90.5 119.1 90.9 120.3 C 87.8 121.8 85.0 123.7 82.6 126.1 C 82.0 128.3 81.2 131.0 82.8 133.1 C 83.5 134.7 85.4 134.8 86.9 135.1 C 87.4 135.0 88.3 134.6 88.7 134.4 C 89.1 136.2 89.5 137.9 89.9 139.7 C 87.5 140.0 85.1 140.3 82.7 140.3 C 81.6 139.8 80.7 139.1 79.8 138.3 C 78.1 134.4 77.1 129.8 78.8 125.7 Z" />
<path fill="#008131" stroke="#008131" stroke-width="0.09375" d=" M 82.6 126.1 C 85.0 123.7 87.8 121.8 90.9 120.3 C 90.7 124.8 90.8 129.5 89.6 133.9 L 88.7 134.4 C 88.3 134.6 87.4 135.0 86.9 135.1 C 84.6 132.6 83.2 129.4 82.6 126.1 Z" />
<path fill="#000000" stroke="#000000" stroke-width="0.09375" d=" M 82.8 133.1 C 81.2 131.0 82.0 128.3 82.6 126.1 C 83.2 129.4 84.6 132.6 86.9 135.1 C 85.4 134.8 83.5 134.7 82.8 133.1 Z" />
<path fill="#fff440" stroke="#fff440" stroke-width="0.09375" d=" M 62.6 128.6 C 62.7 129.0 62.9 129.7 63.0 130.1 C 62.9 130.5 62.8 131.3 62.7 131.7 C 62.6 132.2 62.5 133.2 62.4 133.6 C 61.6 135.5 60.8 137.3 59.7 139.0 C 60.0 135.4 61.3 131.9 62.6 128.6 Z" />
<path fill="#000000" stroke="#000000" stroke-width="0.09375" d=" M 63.0 130.1 C 65.3 130.3 64.3 134.1 62.7 131.7 C 62.8 131.3 62.9 130.5 63.0 130.1 Z" />
<path fill="#fff440" stroke="#fff440" stroke-width="0.09375" d=" M 51.8 157.7 C 54.5 151.1 56.0 143.8 60.4 138.0 C 60.4 141.7 58.1 144.6 57.2 148.0 C 55.3 154.0 52.8 159.8 51.8 166.1 C 51.5 167.4 51.2 168.8 50.9 170.2 C 50.9 170.5 50.7 171.3 50.6 171.7 C 50.4 173.0 50.2 174.4 50.1 175.7 C 49.1 183.1 49.9 190.7 53.4 197.3 C 53.8 198.4 54.2 199.5 54.6 200.6 C 54.8 201.0 55.3 201.8 55.5 202.1 C 57.4 204.9 59.4 207.6 61.5 210.2 C 65.8 216.6 72.9 220.4 79.8 223.2 C 86.8 226.1 94.5 225.6 101.9 225.4 C 113.8 224.4 124.0 217.3 132.9 209.9 C 137.1 206.8 141.2 203.6 145.6 200.7 C 146.0 200.4 146.9 199.9 147.4 199.7 C 147.5 199.6 147.7 199.6 147.8 199.5 C 150.9 198.2 154.3 197.7 157.6 197.5 C 163.2 199.2 168.8 200.9 173.7 204.2 C 179.3 208.0 184.4 212.4 189.7 216.5 C 191.5 218.3 193.4 219.9 195.4 221.4 C 197.4 223.5 199.9 225.2 202.1 227.1 C 195.3 223.9 189.7 218.8 183.8 214.2 C 176.8 207.9 168.7 201.6 159.0 200.5 C 152.5 200.8 146.1 202.9 140.8 206.8 C 132.3 213.0 124.3 220.3 114.4 224.2 C 108.7 227.0 102.3 228.1 96.0 228.0 C 90.3 228.0 84.4 227.9 79.0 226.0 C 62.2 220.4 49.7 204.4 47.2 187.0 C 46.0 177.0 48.9 167.2 51.8 157.7 Z" />
<path fill="#000000" stroke="#000000" stroke-width="0.09375" d=" M 259.0 163.5 C 258.5 156.2 259.7 147.7 265.3 142.5 C 265.8 145.0 263.5 146.5 262.3 148.3 C 260.7 153.2 259.2 158.3 260.6 163.4 L 259.0 163.5 Z" />
<path fill="#000000" stroke="#000000" stroke-width="0.09375" d=" M 227.0 146.0 C 227.8 144.4 229.3 143.7 230.9 143.2 C 233.6 149.0 236.2 154.9 238.1 161.0 C 238.8 163.0 238.4 165.1 238.2 167.1 C 235.6 164.0 235.8 159.6 233.9 156.1 C 232.6 152.1 229.9 148.9 227.0 146.0 Z" />
<path fill="#014b27" stroke="#014b27" stroke-width="0.09375" d=" M 75.7 153.7 C 78.2 150.7 82.4 150.9 86.0 150.8 C 86.0 151.5 86.0 153.0 85.9 153.8 C 84.1 153.9 82.2 154.0 80.4 154.5 C 77.1 156.7 74.7 160.8 76.2 164.8 C 76.8 168.3 81.1 169.1 82.5 172.1 C 80.5 172.2 78.3 172.6 76.3 171.9 C 73.6 169.7 72.0 166.3 71.6 163.0 C 71.9 159.5 73.4 156.2 75.7 153.7 Z" />
<path fill="#008131" stroke="#008131" stroke-width="0.09375" d=" M 77.1 163.8 C 75.9 159.1 80.2 156.0 84.1 154.9 C 84.5 159.4 83.9 163.8 83.0 168.2 C 80.7 167.4 77.1 167.0 77.1 163.8 Z" />
<path fill="#008131" stroke="#008131" stroke-width="0.09375" d=" M 153.9 169.8 C 158.7 169.0 163.7 169.0 168.5 169.9 C 168.1 172.3 167.2 174.7 166.0 176.9 C 163.6 177.0 161.3 177.2 158.9 177.2 L 157.9 177.3 C 156.7 176.1 155.4 174.9 154.2 173.7 C 154.1 172.7 153.9 170.7 153.9 169.8 Z" />
<path fill="#000000" stroke="#000000" stroke-width="0.09375" d=" M 50.9 170.2 C 51.8 171.2 52.7 172.5 52.1 173.9 C 50.9 175.6 50.3 172.5 50.6 171.7 C 50.7 171.3 50.9 170.5 50.9 170.2 Z" />
<path fill="#014b27" stroke="#014b27" stroke-width="0.09375" d=" M 151.8 178.2 C 149.3 175.9 149.2 172.4 150.4 169.4 C 151.6 170.8 152.8 172.4 154.2 173.7 C 155.4 174.9 156.7 176.1 157.9 177.3 C 157.3 177.3 156.1 177.4 155.5 177.4 C 158.5 179.2 162.0 179.2 165.3 178.4 C 163.2 178.0 161.0 177.5 158.9 177.2 C 161.3 177.2 163.6 177.0 166.0 176.9 C 166.4 176.8 167.1 176.8 167.5 176.7 C 168.6 174.6 169.8 172.5 171.0 170.5 C 171.6 172.4 172.8 174.6 171.6 176.5 C 169.9 179.2 167.5 182.2 164.1 182.1 C 159.6 182.6 154.8 181.9 151.8 178.2 Z" />
<path fill="#014b27" stroke="#014b27" stroke-width="0.09375" d=" M 133.3 174.8 C 134.8 175.1 137.0 174.6 137.6 176.5 C 139.7 182.0 136.1 187.6 132.3 191.3 C 128.8 195.2 123.0 194.9 118.3 193.9 C 115.7 193.4 114.7 190.7 113.5 188.7 C 115.3 188.2 117.2 188.0 119.0 188.8 C 119.4 189.0 120.2 189.3 120.7 189.5 C 120.8 189.9 121.0 190.6 121.1 191.0 C 124.8 191.8 129.4 192.5 131.8 188.8 C 135.9 185.2 134.7 179.4 133.3 174.8 Z" />
<path fill="#000000" stroke="#000000" stroke-width="0.09375" d=" M 50.1 175.7 C 50.6 183.0 52.2 190.2 53.4 197.3 C 49.9 190.7 49.1 183.1 50.1 175.7 Z" />
<path fill="#f6725e" stroke="#f6725e" stroke-width="0.09375" d=" M 85.7 177.4 C 88.9 180.9 91.7 184.9 94.0 189.1 C 90.4 186.7 87.1 183.4 85.8 179.2 C 85.8 178.8 85.7 177.9 85.7 177.4 Z" />
<path fill="#000000" stroke="#000000" stroke-width="0.09375" d=" M 155.5 177.4 C 156.1 177.4 157.3 177.3 157.9 177.3 L 158.9 177.2 C 161.0 177.5 163.2 178.0 165.3 178.4 C 162.0 179.2 158.5 179.2 155.5 177.4 Z" />
<path fill="#008131" stroke="#008131" stroke-width="0.09375" d=" M 117.9 185.2 C 122.6 183.2 126.5 179.9 131.0 177.6 C 134.0 177.8 133.5 181.7 133.4 183.9 C 132.1 189.3 125.5 191.4 120.7 189.5 C 120.2 189.3 119.4 189.0 119.0 188.8 C 118.6 187.6 118.3 186.4 117.9 185.2 Z" />
<path fill="#014b27" stroke="#014b27" stroke-width="0.09375" d=" M 180.3 185.8 C 180.7 184.6 181.1 183.4 181.6 182.3 C 183.4 182.2 185.2 182.2 186.9 182.1 C 183.9 185.1 183.1 189.6 184.5 193.5 C 186.8 196.3 190.8 199.0 194.4 196.7 C 195.2 195.2 195.9 193.8 196.6 192.3 C 197.4 194.0 198.2 195.7 199.0 197.4 C 195.6 201.4 189.3 200.4 185.5 197.4 C 181.6 195.0 180.9 190.0 180.3 185.8 Z" />
<path fill="#008131" stroke="#008131" stroke-width="0.09375" d=" M 187.0 184.0 C 190.3 186.7 193.5 189.4 196.6 192.3 C 195.9 193.8 195.2 195.2 194.4 196.7 C 190.5 195.8 186.4 193.8 185.1 189.8 C 185.2 187.7 186.3 185.9 187.0 184.0 Z" />
<path fill="#014b27" stroke="#014b27" stroke-width="0.09375" d=" M 81.6 187.7 C 82.4 186.0 84.4 186.0 86.0 185.6 C 84.2 189.3 82.1 193.4 83.3 197.7 C 85.8 201.1 90.2 204.0 94.6 202.5 C 98.9 201.4 99.2 196.2 102.1 193.5 C 102.3 196.5 102.7 200.0 100.3 202.4 C 97.7 205.7 93.0 205.4 89.3 204.7 C 85.5 203.9 81.3 202.0 79.7 198.2 C 78.1 194.7 79.6 190.7 81.6 187.7 Z" />
<path fill="#008131" stroke="#008131" stroke-width="0.09375" d=" M 86.0 188.7 C 90.3 190.7 94.6 192.8 99.1 194.4 C 97.9 197.2 96.2 200.0 93.4 201.4 C 90.0 202.5 86.8 199.7 85.1 196.9 C 83.5 194.3 85.2 191.3 86.0 188.7 Z" />
<path fill="#000000" stroke="#000000" stroke-width="0.09375" d=" M 157.6 197.5 C 161.9 196.8 165.9 198.6 169.5 200.6 C 177.1 204.7 184.3 209.8 189.7 216.5 C 184.4 212.4 179.3 208.0 173.7 204.2 C 168.8 200.9 163.2 199.2 157.6 197.5 Z" />
<path fill="#000000" stroke="#000000" stroke-width="0.09375" d=" M 147.4 199.7 C 147.5 199.6 147.7 199.6 147.8 199.5 C 147.7 199.6 147.5 199.6 147.4 199.7 Z" />
<path fill="#000000" stroke="#000000" stroke-width="0.09375" d=" M 54.6 200.6 C 56.1 200.2 56.4 200.7 55.5 202.1 C 55.3 201.8 54.8 201.0 54.6 200.6 Z" />
<path fill="#000000" stroke="#000000" stroke-width="0.09375" d=" M 123.9 214.9 C 131.0 210.0 137.4 203.8 145.6 200.7 C 141.2 203.6 137.1 206.8 132.9 209.9 C 124.0 217.3 113.8 224.4 101.9 225.4 C 94.5 225.6 86.8 226.1 79.8 223.2 C 72.9 220.4 65.8 216.6 61.5 210.2 C 66.3 213.6 70.5 217.9 76.1 220.0 C 84.1 224.0 93.2 225.0 102.0 224.3 C 110.1 223.5 117.3 219.3 123.9 214.9 Z" />
<path fill="#014b27" stroke="#014b27" stroke-width="0.09375" d=" M 226.5 204.4 C 227.5 203.6 228.8 203.2 230.0 202.7 C 230.0 204.7 230.1 206.7 229.7 208.6 C 227.5 211.9 224.1 214.8 220.0 214.7 C 216.7 214.7 212.6 214.4 210.7 211.3 C 209.1 209.0 208.0 204.5 211.6 203.6 C 211.8 205.1 212.0 206.7 212.2 208.2 C 212.4 208.4 212.7 208.6 212.9 208.7 C 214.5 209.8 216.2 210.8 217.9 211.6 C 217.4 212.0 216.6 212.7 216.2 213.1 C 218.5 213.2 221.3 214.1 223.3 212.3 C 225.8 210.5 225.6 207.1 226.5 204.4 Z" />
<path fill="#fff440" stroke="#fff440" stroke-width="0.09375" d=" M 236.7 209.7 C 237.9 207.1 239.1 204.4 241.1 202.2 C 240.1 204.9 239.3 208.1 236.7 209.7 Z" />
<path fill="#ffffff" stroke="#ffffff" stroke-width="0.09375" d=" M 140.4 211.4 C 146.2 208.1 152.1 204.0 159.0 204.0 C 163.9 204.7 168.3 207.2 172.7 209.3 C 181.5 215.4 189.4 222.6 197.9 229.0 C 194.0 230.6 189.8 231.3 185.7 232.3 C 192.7 233.1 199.8 233.8 206.8 235.0 L 113.2 235.0 C 117.0 234.3 120.9 234.3 124.6 233.1 C 120.2 230.7 115.0 231.1 110.2 230.0 C 113.8 227.7 118.1 227.0 121.8 224.7 C 128.1 220.5 134.3 216.0 140.4 211.4 Z" />
<path fill="#008131" stroke="#008131" stroke-width="0.09375" d=" M 213.9 204.0 C 217.7 204.3 221.5 204.6 225.3 204.9 C 225.3 208.7 222.2 213.6 217.9 211.6 C 216.2 210.8 214.5 209.8 212.9 208.7 C 213.2 207.1 213.6 205.6 213.9 204.0 Z" />
<path fill="#fff440" stroke="#fff440" stroke-width="0.09375" d=" M 236.2 210.2 C 236.8 210.8 236.8 210.8 236.2 210.2 Z" />
<path fill="#fff440" stroke="#fff440" stroke-width="0.09375" d=" M 234.6 212.3 C 236.4 213.1 233.6 216.2 232.2 215.9 C 231.9 214.5 233.5 213.0 234.6 212.3 Z" />
<path fill="#fff440" stroke="#fff440" stroke-width="0.09375" d=" M 223.8 224.1 C 226.1 221.3 228.8 218.8 231.6 216.5 C 230.3 220.2 226.6 221.9 223.8 224.1 Z" />
<path fill="#fff440" stroke="#fff440" stroke-width="0.09375" d=" M 211.9 228.9 C 214.5 227.6 217.2 226.8 220.0 226.1 C 217.4 227.3 214.7 228.4 211.9 228.9 Z" />
</svg>
